<?xml version="1.0" encoding="UTF-8"?>
<svg id="b" data-name="Layer 2" xmlns="http://www.w3.org/2000/svg" viewBox="0 0 80 80">
  <defs>
    <style>
      .d, .e, .f, .g {
        stroke: #9fa8da;
      }

      .d, .f, .h, .g {
        fill: #9fa8da;
      }

      .d, .f, .g {
        stroke-miterlimit: 10;
      }

      .e {
        fill: none;
        stroke-linejoin: round;
      }

      .e, .f {
        stroke-linecap: round;
      }

      .f {
        stroke-width: .2px;
      }

      .h {
        stroke-width: 0px;
      }

      .g {
        stroke-width: .8px;
      }
    </style>
  </defs>
  <g id="c" data-name="Layer 1">
    <path class="h" d="m55.2,8.1c.7,0,1.3.6,1.3,1.3v66.4c0,.7-.6,1.3-1.3,1.3H3.3c-.7,0-1.3-.6-1.3-1.3V9.4c0-.7.6-1.3,1.3-1.3h51.9m0-2H3.3c-1.8,0-3.3,1.5-3.3,3.3v66.4c0,1.8,1.5,3.3,3.3,3.3h51.9c1.8,0,3.3-1.5,3.3-3.3V9.4c0-1.8-1.5-3.3-3.3-3.3h0Z"/>
    <path class="h" d="m4.1,15.1c1.3,2.4,3,4.3,5,6.2h0c0,0,0,0,0,0,.5.5.9.9,1.4,1.4-.4.3-.8.6-1.3.9l.6.6,1.5-1.5c.9.6,1.6,1.4,2.2,2.3l.6-.6c-.9-.6-1.7-1.3-2.3-2.2l1.5-1.5-.6-.6c-.2.5-.5.9-.8,1.3-.9-.9-1.8-1.8-2.8-2.7,0,0,0,0,0,0-1.5-1.4-3.1-2.7-5-3.7h0Zm10.1,0c-1.8,1-3.3,2.2-4.7,3.4l.5.5,1.2-1.2.3.3-1.2,1.2.5.5c1.3-1.4,2.5-2.9,3.4-4.7h0Zm-7,2.7l4.3,4.3c0,0-.2.2-.3.3l-4.3-4.3.3-.3Zm-1.6,2.4l-.6.6,1.5,1.5c-.6.9-1.4,1.6-2.3,2.2l.6.6c.6-.9,1.3-1.7,2.2-2.3l1.5,1.5.6-.6c-.4-.3-.9-.5-1.3-.9.4-.4.8-.8,1.1-1.1l-.5-.5-1.2,1.2c0,0-.2-.2-.3-.3l1.2-1.2-.5-.5c-.4.4-.8.8-1.2,1.2-.3-.4-.6-.8-.8-1.3h0Z"/>
    <path class="h" d="m5.5,31.4l-.2.2h0s.6,7.1.6,7.1l-1.8,2,.7.7,1.9-1.7,7.1.5s0,0,0,0h0s0,0,0,0h0s.2-.2.2-.2c0,0,0,0,0-.1-.5-.5-.5-1.3-.8-2.3-.2-.8-.5-1.7-1.1-2.7l-.8,1.1s0,0,0,0c.6.8,1,1.4,1.3,2,.3.7.6,1.3.9,1.8l-6.4-.5,3.7-3.3,1.4-1.8-.9-.9-1.8,1.4-3.2,3.6-.5-6.4c.5.4,1.1.6,1.8.9.6.3,1.3.7,2,1.3l1.1-.8c-.9-.7-1.8-1-2.7-1.1-1-.2-1.8-.3-2.3-.8,0,0,0,0-.1,0Zm6.7,0c0,0-.1,0-.2,0,0,0-.2,0-.3,0,0,0-.1,0-.2,0,0,0,0,0,0,.1v1.3c.1,0,.1,0,.2,0l.7.7s0,0,0,0h1.3c0,.1.1,0,.1,0,0,0,0-.1,0-.2,0,0,0-.2,0-.3,0,0,0-.2,0-.3,0,0,0-.2-.1-.3l-1.4-1.4c0,0-.2,0-.3-.1,0,0,0,0,0,0h0Zm0,.3s0,0,0,0c0,0,0,0,0,0l1.4,1.4s0,0,0,0c0,0,0,.1,0,.2,0,0,0,.2,0,.2,0,0,0,0,0,0h-1.2c0,0-.6-.7-.6-.7v-1.2c0,0,0,0,0,0,0,0,.1,0,.2,0,0,0,.1,0,.2,0h0Zm-1,2.6l-.4.7-4.3,4.3h-.2s0-.3,0-.3l4.3-4.3.7-.4h0Z"/>
    <path class="h" d="m10.8,47.7c-1.1.5-2.3.6-3.4,0v1c1.1.6,2.2.5,3.4,0v-1Zm-4.7.2c-.2,0-.3,0-.5,0,0,.6.2,1.3.6,1.8.2-.1.3-.3.5-.4-.2-.5-.3-1-.3-1.5,0,0-.1,0-.2,0,0,0-.1,0-.2,0h0Zm6.1,0c0,0-.1,0-.2,0,0,0-.1,0-.2,0,0,.5-.1,1-.3,1.5.1.1.3.3.5.4.5-.5.7-1.2.6-1.8-.2,0-.3,0-.5,0h0Zm-7,0c-.3,0-.6.2-.9.3,0,.7.3,1.5.8,1.9h0c.3,0,.6-.1.8-.3-.5-.6-.7-1.3-.7-2Zm8,0c0,.7-.2,1.4-.7,2,.2.1.5.2.8.3h0c.5-.5.8-1.2.8-1.9-.3-.2-.6-.3-.9-.3h0Zm-9.4.7c-.3.4-.5.9-.5,1.5.4.1.9.1,1.2.1-.4-.4-.7-1-.7-1.7h0Zm10.7,0c0,.6-.3,1.2-.7,1.7.4,0,.8,0,1.2-.1,0-.7-.2-1.2-.5-1.5h0Zm-3.3.4h0c-.6.3-1.2.5-1.8.5v5.3c1.8-.6,3-2,3-3.6s0-.6-.2-.9c-.4-.2-.8-.5-1.1-.8h-.1c0-.1,0-.2,0-.2,0,0,0-.2,0-.3h0Zm-4.1,0c0,0,0,.2,0,.3h0c0,.1-.1.2-.1.2-.3.3-.7.6-1.2.8,0,.3-.1.6-.1.9,0,1.6,1.3,2.9,3.1,3.6v-5.3c-.6,0-1.2-.2-1.8-.5h0Zm-.4,5.1c-.1.1-.3.2-.4.4.5.4,1.3.9,2,1.1.1-.1.3-.3.4-.4l-2-1Zm4.9,0l-2,1c.2.1.3.3.4.4.7-.2,1.4-.6,2-1.1-.1-.1-.3-.3-.4-.4Zm-5.6.7c-.2.2-.3.4-.4.6.6.5,1.3.9,2.1,1.1,0-.2.2-.4.3-.6-.8-.2-1.4-.7-2-1.1h0Zm6.4,0c-.5.4-1.2.9-2,1.1.1.2.2.4.3.6.8-.2,1.5-.6,2.1-1.1-.1-.2-.3-.4-.4-.6h0Zm-7,.9c-.1.2-.3.5-.4.7.7.7,1.5,1,2.4,1.1,0-.2.1-.5.2-.7-.8-.2-1.6-.7-2.2-1.1h0Zm7.7,0c-.6.5-1.3.9-2.2,1.1,0,.2.2.5.2.7.9,0,1.7-.5,2.4-1.1-.1-.2-.3-.5-.4-.7h0Z"/>
    <path class="h" d="m11.5,64.1c0,0-.1,0-.2,0l-.3.7h-.1c0,0-.2-.2-.2-.2v.2c0,0-.4,1-.4,1h0c0,0,0,0,0,0-.5.8-1.2,1.2-1.9,1.6-.9.4-1.9.7-2.8,1-.5.2-.8.5-.9.9s-.1.9,0,1.4c.2,1,.9,2,1.7,2.6.8.6,2,.8,3,.7.5,0,1-.2,1.3-.5.4-.3.6-.7.6-1.2,0-.9-.1-2,0-3,0-.8.3-1.6.9-2.3h0s.3-.3.3-.3v1.9c-.3,0-.5.4-.5.7,0,0,0,.2,0,.3h0s0,0,0,0l.5,2.5,1.4-.5-.5-2.5c0-.2-.2-.4-.3-.4,0,0-.2,0-.2,0v-2.2h.1c0,0,.2-.2.2-.2l-.2-.2h-.1c0,0,.5-.6.5-.6,0-.7-1-1.4-1.8-1.4h0Zm-.7,1.1l1.6,1.1h0s0,0,0,0h0s-.5.4-.5.4c-.6,0-1-.4-1.3-.9l.2-.7h0Zm-.5,1.1c.3.4.7.7,1.2.8-.5.7-.7,1.5-.8,2.3,0,0,0,0,0,0-.1,0-.3-.2-.6-.2-.6-.2-1.4-.3-2.3-.3s-1.7.1-2.3.3c-.2,0-.5.2-.6.2.1-.3.3-.5.7-.7.9-.3,1.9-.6,2.8-1,.7-.4,1.4-.8,1.9-1.6h0Zm2.2,2.9c.2,0,.3.1.3.3s-.1.3-.3.3-.3-.1-.3-.3.1-.3.3-.3h0Zm-7.7.9s0,0,0,0c.1,0,.4.2.7.3.6.2,1.4.3,2.3.3s1.7-.1,2.3-.3c.2,0,.4-.1.6-.2,0,.2,0,.3,0,.4-.1,0-.3.1-.4.2-.6.2-1.5.3-2.4.3s-1.8-.1-2.4-.3c-.2,0-.4-.1-.5-.2,0-.2,0-.3,0-.5h0Z"/>
    <g>
      <line class="g" x1="18" y1="34.4" x2="54" y2="34.4"/>
      <line class="g" x1="18" y1="39.4" x2="36" y2="39.4"/>
    </g>
    <g>
      <line class="g" x1="18" y1="67.1" x2="54" y2="67.1"/>
      <line class="g" x1="18" y1="72.1" x2="36" y2="72.1"/>
    </g>
    <g>
      <line class="g" x1="18" y1="50.7" x2="54" y2="50.7"/>
      <line class="g" x1="18" y1="55.7" x2="36" y2="55.7"/>
    </g>
    <g>
      <line class="d" x1="18" y1="18.1" x2="54" y2="18.1"/>
      <line class="d" x1="18" y1="23.1" x2="36" y2="23.1"/>
    </g>
    <path class="f" d="m37.7,3.6h-2.7c0-3.2-1.6-3.5-5.9-3.5s-5.3.3-5.5,3.5h-1.9c-3,0-5.5,2.5-5.5,5.5h26.2c0-3-1.7-5.5-4.7-5.5Zm-8.4-1.2c-.3,0-.6-.3-.6-.6s.3-.6.6-.6.6.3.6.6-.3.6-.6.6Z"/>
    <g>
      <rect class="e" x="54.2" y="37.2" width="26.4" height="4.9" transform="translate(19.3 101.3) rotate(-82.5)"/>
      <path class="e" d="m66.7,26.2l4.8.6.6-4.4c.2-1.5-4.6-2.1-4.8-.6l-.6,4.4Z"/>
      <polygon class="e" points="68.1 53.1 64.9 58.6 63.2 52.4 68.1 53.1"/>
    </g>
  </g>
</svg>
