<?xml version="1.0" encoding="utf-8"?>
<!-- Generator: Adobe Illustrator 27.8.1, SVG Export Plug-In . SVG Version: 6.00 Build 0)  -->
<svg version="1.1" id="bosses" xmlns="http://www.w3.org/2000/svg" xmlns:xlink="http://www.w3.org/1999/xlink" x="0px" y="0px"
	 viewBox="0 0 50.3 49" style="enable-background:new 0 0 50.3 49;" xml:space="preserve">
<style type="text/css">
	.st0{fill:#9FA8DA;stroke:#9FA8DA;stroke-width:0.15;stroke-miterlimit:10;}
</style>
<path id="base" class="st0" d="M22.3,26.2L22.3,26.2c-0.2,0.2-0.3,0.6-0.1,0.7c0.2,0.2,0.4,0.3,0.7,0.4c0.7,0.2,1.4,0.3,2.1,0.3
	c0.8,0,1.6-0.1,2.3-0.3c0.3-0.1,0.5-0.2,0.7-0.4c0.2-0.2,0.2-0.4,0-0.6c0,0-0.1-0.1-0.2-0.2c0,0,0,0,0,0c0.4,0.1,0.8,0.2,1.1,0.5
	c0.2,0.2,0.2,0.5,0,0.7c-0.2,0.2-0.4,0.3-0.7,0.4c-0.5,0.2-1,0.3-1.6,0.4c-0.8,0.1-1.7,0.1-2.5,0c-0.7-0.1-1.5-0.2-2.2-0.5
	c-0.2-0.1-0.4-0.2-0.5-0.3c-0.3-0.2-0.3-0.5,0-0.7C21.5,26.6,22.1,26.3,22.3,26.2L22.3,26.2L22.3,26.2z"/>
<path id="teeth" class="st0" d="M24.5,27.1c-0.2,0-0.3-0.1-0.5-0.1c0.1-0.2,0.1-0.3,0.2-0.5c0.1,0,0.2,0,0.4,0.1
	C24.5,26.7,24.5,26.9,24.5,27.1L24.5,27.1z M26.1,26.9c-0.2,0-0.3,0.1-0.5,0.1c0-0.2,0-0.3-0.1-0.5c0.1,0,0.3,0,0.4-0.1
	C26,26.6,26,26.8,26.1,26.9z M25.3,27.1h-0.5c0-0.2,0-0.3,0.1-0.5h0.4C25.2,26.7,25.3,26.9,25.3,27.1z M23.9,26.4
	c-0.1,0.2-0.1,0.3-0.2,0.5c-0.1-0.1-0.3-0.2-0.4-0.2c0.1-0.1,0.2-0.3,0.3-0.4C23.7,26.3,23.8,26.3,23.9,26.4L23.9,26.4z M26.7,26.6
	c-0.1,0.1-0.3,0.2-0.4,0.2c-0.1-0.2-0.1-0.3-0.2-0.5c0.1,0,0.2-0.1,0.3-0.1C26.6,26.3,26.6,26.4,26.7,26.6L26.7,26.6z"/>
<path id="skull" class="st0" d="M27.4,22.3c-0.4-1-1.1-1.6-2.1-1.6c-0.7,0-1.3,0.1-1.8,0.5c-0.3,0.3-0.6,0.7-0.8,1.1
	c-0.2,0.5-0.3,1.1-0.3,1.7c0,0,0.1,0,0.1,0.1c0.3,0.1,0.5,0.3,0.8,0.5c0.3,0.3,0.4,0.7,0.1,1.1c0.8,0.8,2.6,0.7,3.3,0
	c-0.3-0.4-0.2-0.7,0.1-1c0.1-0.1,0.3-0.3,0.5-0.4c0.1-0.1,0.3-0.2,0.5-0.3C27.7,23.4,27.6,22.9,27.4,22.3z M23.6,22.6
	c1,0.2,1.9,0.2,2.9,0l-0.3,0.5c-0.7,0.2-1.6,0.2-2.3,0L23.6,22.6z M23,24c-0.1-0.5,0.1-1,0.5-1h0c0.2,0.6,0.6,0.7,1.2,0.7v0.5
	C24.2,24.6,23.6,24.4,23,24z M24.6,25.6c0.1-0.3,0.3-0.7,0.4-1h0c0.2,0.3,0.3,0.7,0.4,1h0C25.2,25.7,24.9,25.8,24.6,25.6z M27.1,24
	L27.1,24c-0.6,0.5-1.2,0.6-1.7,0.3v-0.5c0.6,0,1-0.1,1.2-0.7C27.1,23,27.2,23.4,27.1,24z"/>
</svg>
