<?xml version="1.0" encoding="UTF-8"?>
<svg id="bosses" data-name="Layer 2" xmlns="http://www.w3.org/2000/svg">
  <defs>
    <style>
      .bosses_g {
        fill: #9fa8da;
        stroke: #9fa8da;
        stroke-miterlimit: 10;
        stroke-width: .1px;
      }
    </style>
  </defs>
  <g id="bosses_c" data-name="bosses">
    <path id="base" data-name="base" class="bosses_g" d="m1.2,5.6h0c-.2.2-.3.6-.1.7.2.2.4.3.7.4.7.2,1.4.3,2.1.3.8,0,1.6,0,2.3-.3.3,0,.5-.2.7-.4s.2-.4,0-.6c0,0-.1-.1-.2-.2,0,0,0,0,0,0,.4.1.8.2,1.1.5s.2.5,0,.7c-.2.2-.4.3-.7.4-.5.2-1,.3-1.6.4-.8.1-1.7.1-2.5,0-.7,0-1.5-.2-2.2-.5-.2,0-.4-.2-.5-.3-.3-.2-.3-.5,0-.7.2-.1.8-.4,1-.5h0Z"/>
    <path id="teeth" data-name="teeth" class="bosses_g" d="m3.4,6.5c-.2,0-.3,0-.5-.1,0-.2.1-.3.2-.5.1,0,.2,0,.4,0,0,.2,0,.3,0,.5h0Zm1.6-.1c-.2,0-.3,0-.5.1,0-.2,0-.3,0-.5.1,0,.3,0,.4,0,0,.2.1.3.2.5Zm-.8.2h-.5c0-.2,0-.3,0-.5h.4c0,.2,0,.3,0,.5Zm-1.4-.7c0,.2-.1.3-.2.5-.1,0-.3-.2-.4-.2,0-.1.2-.3.3-.4,0,0,.2,0,.3.1h0Zm2.9.2c-.1,0-.3.2-.4.2,0-.2-.1-.3-.2-.5,0,0,.2,0,.3-.1,0,.1.2.3.3.4h0Z"/>
    <path id="skull" data-name="skull" class="bosses_g" d="m6.3,1.7c-.4-1-1.1-1.6-2.1-1.6-.7,0-1.3,0-1.8.5-.3.3-.6.7-.8,1.1-.2.5-.3,1.1-.3,1.7,0,0,0,0,.1,0,.3.1.5.3.8.5.3.3.4.7.1,1.1.8.8,2.6.7,3.3,0-.3-.4-.2-.7,0-1s.3-.3.5-.4c.1,0,.3-.2.5-.3,0-.6-.1-1.1-.3-1.7Zm-3.8.3c1,.2,1.9.2,2.9,0l-.3.5c-.7.2-1.6.2-2.3,0l-.3-.5Zm-.6,1.4c-.1-.5,0-1,.5-1h0c.2.6.6.7,1.2.7v.5c-.5.3-1.1.2-1.7-.3Zm1.6,1.6c.1-.3.3-.7.4-1h0c.2.3.3.7.4,1h0c-.2.2-.6.2-.9,0Zm2.5-1.6h0c-.6.5-1.2.6-1.7.3v-.5c.6,0,1-.1,1.2-.7.5,0,.6.4.5,1Z"/>
  </g>
</svg>
