<?xml version="1.0" encoding="utf-8"?>
<!-- Generator: Adobe Illustrator 27.8.1, SVG Export Plug-In . SVG Version: 6.00 Build 0)  -->
<svg version="1.1" id="inventory" xmlns="http://www.w3.org/2000/svg" xmlns:xlink="http://www.w3.org/1999/xlink" x="0px" y="0px"
	 viewBox="0 0 80 80" style="enable-background:new 0 0 80 80;" xml:space="preserve">
<style type="text/css">
	.st0{fill:#ABADB0;}
	.st1{fill:#FFFFFF;}
	.st2{fill:none;stroke:#FFFFFF;stroke-width:0.25;stroke-miterlimit:10;}
	.st3{fill:#ABADB0;stroke:#FFFFFF;stroke-width:0.2;stroke-linecap:round;stroke-miterlimit:10;}
	.st4{fill:#ABADB0;stroke:#FFFFFF;stroke-width:0.25;stroke-miterlimit:10;}
</style>
<rect x="36.5" y="31.5" class="st0" width="11.9" height="16.1"/>
<path class="st1" d="M48,31.5c0.2,0,0.3,0.1,0.3,0.3v15.5c0,0.2-0.1,0.3-0.3,0.3H36.7c-0.2,0-0.3-0.1-0.3-0.3V31.8
	c0-0.2,0.1-0.3,0.3-0.3H48 M48,31H36.7c-0.4,0-0.7,0.3-0.7,0.8v15.5c0,0.4,0.3,0.8,0.7,0.8h11.3c0.4,0,0.7-0.3,0.7-0.8V31.8
	C48.8,31.4,48.4,31,48,31L48,31z"/>
<path class="st1" d="M36.9,33.2c0.3,0.6,0.7,1,1.2,1.5l0,0l0,0c0.1,0.1,0.2,0.2,0.3,0.3c-0.1,0.1-0.2,0.1-0.3,0.2l0.1,0.1l0.3-0.3
	c0.2,0.1,0.4,0.3,0.5,0.5l0.1-0.1c-0.2-0.1-0.4-0.3-0.5-0.5l0.3-0.3l-0.1-0.1c-0.1,0.1-0.1,0.2-0.2,0.3c-0.2-0.2-0.4-0.4-0.7-0.6
	l0,0C37.8,33.7,37.4,33.4,36.9,33.2L36.9,33.2L36.9,33.2z M39.3,33.2c-0.4,0.2-0.8,0.5-1.1,0.8l0.1,0.1l0.3-0.3l0.1,0.1l-0.3,0.3
	l0.1,0.1C38.8,33.9,39.1,33.6,39.3,33.2L39.3,33.2z M37.7,33.8l1,1c0,0-0.1,0.1-0.1,0.1L37.7,33.8L37.7,33.8z M37.3,34.4l-0.1,0.1
	l0.3,0.3c-0.1,0.2-0.3,0.4-0.5,0.5l0.1,0.1c0.1-0.2,0.3-0.4,0.5-0.5l0.3,0.3l0.1-0.1c-0.1-0.1-0.2-0.1-0.3-0.2
	c0.1-0.1,0.2-0.2,0.3-0.3L38,34.6l-0.3,0.3c0,0-0.1-0.1-0.1-0.1l0.3-0.3l-0.1-0.1c-0.1,0.1-0.2,0.2-0.3,0.3
	C37.4,34.6,37.3,34.5,37.3,34.4L37.3,34.4L37.3,34.4z"/>
<path class="st1" d="M37.3,37L37.3,37L37.3,37l0.1,1.7l-0.4,0.4l0.2,0.2l0.4-0.4l1.6,0.1l0,0l0,0l0,0l0,0l0.1-0.1c0,0,0,0,0,0
	c-0.1-0.1-0.1-0.3-0.2-0.5c-0.1-0.2-0.1-0.4-0.3-0.6L38.6,38l0,0c0.1,0.2,0.2,0.3,0.3,0.5c0.1,0.2,0.1,0.3,0.2,0.4l-1.5-0.1l0.9-0.8
	l0.3-0.4l-0.2-0.2l-0.4,0.3l-0.7,0.9l-0.1-1.5c0.1,0.1,0.3,0.1,0.4,0.2c0.1,0.1,0.3,0.2,0.5,0.3l0.3-0.2c-0.2-0.2-0.4-0.2-0.6-0.3
	C37.6,37.1,37.5,37.1,37.3,37C37.3,37,37.3,37,37.3,37L37.3,37z M38.8,37C38.8,37,38.8,37,38.8,37c-0.1,0-0.1,0-0.1,0c0,0,0,0-0.1,0
	c0,0,0,0,0,0v0.3c0,0,0,0,0.1,0l0.2,0.2l0,0h0.3c0,0,0,0,0,0s0,0,0-0.1c0,0,0-0.1,0-0.1c0,0,0-0.1,0-0.1c0,0,0-0.1,0-0.1l-0.3-0.3
	c0,0-0.1,0-0.1,0l0,0l0,0L38.8,37z M38.8,37L38.8,37L38.8,37l0.3,0.3l0,0c0,0,0,0,0,0.1v0.1l0,0h-0.3l-0.1-0.2V37l0,0
	C38.7,37,38.7,37,38.8,37C38.8,37,38.8,37,38.8,37L38.8,37L38.8,37z M38.6,37.7l-0.1,0.2l-1,1h-0.1v-0.1l1-1L38.6,37.7L38.6,37.7
	L38.6,37.7z"/>
<path class="st1" d="M38.5,40.8c-0.3,0.1-0.5,0.1-0.8,0V41c0.3,0.1,0.5,0.1,0.8,0V40.8z M37.4,40.8c-0.1,0-0.1,0-0.1,0
	c0,0.1,0.1,0.3,0.1,0.4c0.1,0,0.1-0.1,0.1-0.1C37.5,41,37.5,40.9,37.4,40.8C37.5,40.8,37.5,40.8,37.4,40.8
	C37.4,40.8,37.4,40.8,37.4,40.8L37.4,40.8L37.4,40.8z M38.8,40.8C38.8,40.8,38.8,40.8,38.8,40.8c-0.1,0-0.1,0-0.1,0
	c0,0.1,0,0.2-0.1,0.3c0,0,0.1,0.1,0.1,0.1C38.8,41.2,38.9,41,38.8,40.8C38.9,40.9,38.8,40.9,38.8,40.8L38.8,40.8L38.8,40.8z
	 M37.2,40.8c-0.1,0-0.1,0.1-0.2,0.1c0,0.2,0.1,0.3,0.2,0.4l0,0c0.1,0,0.1,0,0.2-0.1C37.3,41.1,37.2,41,37.2,40.8L37.2,40.8z
	 M39.1,40.8c0,0.2-0.1,0.3-0.2,0.5c0.1,0,0.1,0.1,0.2,0.1l0,0c0.1-0.1,0.2-0.3,0.2-0.4C39.2,40.9,39.1,40.9,39.1,40.8L39.1,40.8
	L39.1,40.8z M36.9,41c-0.1,0.1-0.1,0.2-0.1,0.3c0.1,0,0.2,0,0.3,0C36.9,41.3,36.9,41.1,36.9,41L36.9,41L36.9,41z M39.4,41
	c0,0.1-0.1,0.3-0.2,0.4c0.1,0,0.2,0,0.3,0C39.5,41.2,39.4,41.1,39.4,41L39.4,41L39.4,41z M38.6,41.1L38.6,41.1
	c-0.1,0.1-0.3,0.1-0.4,0.1v1.2c0.4-0.1,0.7-0.5,0.7-0.8c0-0.4,0-0.1-0.1-0.2c-0.1-0.1-0.2-0.1-0.3-0.2h0
	C38.6,41.2,38.6,41.2,38.6,41.1C38.6,41.2,38.6,41.1,38.6,41.1L38.6,41.1L38.6,41.1z M37.6,41.1C37.6,41.1,37.6,41.1,37.6,41.1
	L37.6,41.1c0,0.1,0,0.1,0,0.1c-0.1,0.1-0.2,0.1-0.3,0.2c0,0.1,0,0.1,0,0.2c0,0.4,0.3,0.7,0.7,0.8v-1.2
	C37.9,41.2,37.8,41.2,37.6,41.1L37.6,41.1L37.6,41.1z M37.5,42.3C37.5,42.3,37.5,42.3,37.5,42.3c0,0.2,0.2,0.3,0.4,0.3
	c0,0,0.1-0.1,0.1-0.1L37.5,42.3L37.5,42.3z M38.7,42.3l-0.5,0.2c0.1,0,0.1,0.1,0.1,0.1c0.2-0.1,0.3-0.1,0.5-0.3
	C38.8,42.3,38.7,42.3,38.7,42.3L38.7,42.3z M37.4,42.4c-0.1,0.1-0.1,0.1-0.1,0.1c0.1,0.1,0.3,0.2,0.5,0.3c0-0.1,0.1-0.1,0.1-0.1
	C37.7,42.6,37.5,42.5,37.4,42.4L37.4,42.4z M38.9,42.4c-0.1,0.1-0.3,0.2-0.5,0.3c0,0.1,0.1,0.1,0.1,0.1c0.2-0.1,0.3-0.1,0.5-0.3
	C38.9,42.5,38.9,42.5,38.9,42.4L38.9,42.4z M37.3,42.6c0,0.1-0.1,0.1-0.1,0.2c0.2,0.2,0.3,0.2,0.5,0.3c0-0.1,0-0.1,0.1-0.2
	C37.6,42.9,37.4,42.7,37.3,42.6L37.3,42.6z M39,42.6c-0.1,0.1-0.3,0.2-0.5,0.3c0,0.1,0.1,0.1,0.1,0.2c0.2,0,0.4-0.1,0.5-0.3
	C39.1,42.8,39.1,42.7,39,42.6L39,42.6z"/>
<path class="st1" d="M38.7,44.6C38.7,44.6,38.6,44.6,38.7,44.6l-0.1,0.2h0l-0.1-0.1v0.1L38.4,45l0,0l0,0c-0.1,0.2-0.3,0.3-0.4,0.4
	c-0.2,0.1-0.4,0.2-0.7,0.2c-0.1,0.1-0.2,0.1-0.2,0.2c0,0.1,0,0.2,0,0.3c0.1,0.2,0.2,0.5,0.4,0.6c0.2,0.1,0.5,0.2,0.7,0.2
	c0.1,0,0.2-0.1,0.3-0.1c0.1-0.1,0.1-0.2,0.1-0.3c0-0.2,0-0.5,0-0.7c0-0.2,0.1-0.4,0.2-0.5l0,0l0.1-0.1v0.4c-0.1,0-0.1,0.1-0.1,0.2
	c0,0,0,0.1,0,0.1l0,0l0,0l0.1,0.6l0.3-0.1l-0.1-0.6c0-0.1-0.1-0.1-0.1-0.1h-0.1v-0.5H39l0.1-0.1l-0.1,0h0l0.1-0.1
	C39.1,44.8,38.9,44.6,38.7,44.6L38.7,44.6L38.7,44.6z M38.5,44.9l0.4,0.3l0,0l0,0l0,0l-0.1,0.1c-0.1,0-0.2-0.1-0.3-0.2L38.5,44.9
	L38.5,44.9L38.5,44.9z M38.4,45.1c0.1,0.1,0.2,0.2,0.3,0.2c-0.1,0.2-0.2,0.3-0.2,0.5l0,0c0,0-0.1-0.1-0.1-0.1
	c-0.1-0.1-0.3-0.1-0.5-0.1s-0.4,0-0.5,0.1c-0.1,0-0.1,0.1-0.1,0.1c0-0.1,0.1-0.1,0.2-0.2c0.2-0.1,0.4-0.1,0.7-0.2
	C38.2,45.3,38.3,45.3,38.4,45.1L38.4,45.1L38.4,45.1L38.4,45.1z M38.9,45.8C38.9,45.8,39,45.8,38.9,45.8c0.1,0.1,0.1,0.2,0,0.2
	C38.8,45.9,38.8,45.9,38.9,45.8C38.8,45.8,38.8,45.8,38.9,45.8L38.9,45.8z M37.1,46L37.1,46c0,0,0.1,0.1,0.2,0.1
	c0.1,0.1,0.3,0.1,0.5,0.1s0.4,0,0.5-0.1c0.1,0,0.1,0,0.1-0.1c0,0.1,0,0.1,0,0.1c0,0-0.1,0-0.1,0.1c-0.1,0.1-0.3,0.1-0.5,0.1
	s-0.4,0-0.5-0.1c-0.1,0-0.1,0-0.1-0.1C37.2,46.1,37.2,46,37.1,46L37.1,46L37.1,46L37.1,46z"/>
<g>
	<line class="st2" x1="40.2" y1="37.7" x2="47.1" y2="37.7"/>
	<line class="st2" x1="40.2" y1="38.8" x2="43.7" y2="38.8"/>
</g>
<g>
	<line class="st2" x1="40.2" y1="45.3" x2="47.1" y2="45.3"/>
	<line class="st2" x1="40.2" y1="46.5" x2="43.7" y2="46.5"/>
</g>
<g>
	<line class="st2" x1="40.2" y1="41.5" x2="47.1" y2="41.5"/>
	<line class="st2" x1="40.2" y1="42.6" x2="43.7" y2="42.6"/>
</g>
<g>
	<line class="st2" x1="40.2" y1="33.9" x2="47.1" y2="33.9"/>
	<line class="st2" x1="40.2" y1="35" x2="43.7" y2="35"/>
</g>
<path class="st3" d="M44.3,30.5h-0.6c0-0.8-0.4-0.8-1.4-0.8c-1,0-1.2,0.1-1.2,0.8h-0.4c-0.7,0-1.3,0.6-1.3,1.3h6.1
	C45.4,31,45,30.5,44.3,30.5z M42.4,30.3c-0.1,0-0.2-0.1-0.2-0.2s0.1-0.2,0.2-0.2c0.1,0,0.2,0.1,0.2,0.2S42.5,30.3,42.4,30.3z"/>
<g>
	<polygon class="st4" points="49.2,42.3 49.9,36.1 51.1,36.3 50.4,42.4 	"/>
	<path class="st4" d="M49.9,36.1l1.1,0.1l0.1-1c0.1-0.3-1.1-0.5-1.1-0.1L49.9,36.1z"/>
	<polygon class="st4" points="50.3,42.4 49.6,43.7 49.2,42.3 	"/>
</g>
</svg>
