<?xml version="1.0" encoding="utf-8"?>
<!-- Generator: Adobe Illustrator 27.8.1, SVG Export Plug-In . SVG Version: 6.00 Build 0)  -->
<svg version="1.1" id="b" xmlns="http://www.w3.org/2000/svg" xmlns:xlink="http://www.w3.org/1999/xlink" x="0px" y="0px"
	 viewBox="0 0 80 80" style="enable-background:new 0 0 80 80;" xml:space="preserve">
<style type="text/css">
	.st0{fill:#9FA8DA;}
	.st1{fill:none;stroke:#9FA8DA;stroke-width:0.8;stroke-miterlimit:10;}
	.st2{fill:none;stroke:#9FA8DA;stroke-miterlimit:10;}
	.st3{fill:#9FA8DA;stroke:#9FA8DA;stroke-width:0.2;stroke-linecap:round;stroke-miterlimit:10;}
	.st4{fill:none;stroke:#9FA8DA;stroke-linecap:round;stroke-linejoin:round;}
</style>
<g>
	<path class="st0" d="M60.7,10.5c0.6,0,1.1,0.5,1.1,1.2v59.7c0,0.6-0.5,1.2-1.1,1.2H17.2c-0.6,0-1.1-0.5-1.1-1.2V11.7
		c0-0.6,0.5-1.2,1.1-1.2L60.7,10.5 M60.7,8.7H17.2c-1.5,0-2.8,1.3-2.8,3v59.7c0,1.6,1.3,3,2.8,3h43.6c1.5,0,2.8-1.3,2.8-3V11.7
		C63.5,10.1,62.2,8.7,60.7,8.7L60.7,8.7z"/>
	<path class="st0" d="M18,16.8c1.2,2.2,2.7,3.9,4.5,5.6l0,0l0,0c0.4,0.4,0.8,0.8,1.2,1.3c-0.4,0.3-0.7,0.5-1.2,0.8l0.5,0.5l1.3-1.3
		c0.8,0.5,1.4,1.3,2,2.1l0.5-0.5c-0.8-0.5-1.5-1.2-2-2l1.3-1.3l-0.5-0.5c-0.2,0.4-0.4,0.8-0.7,1.2c-0.8-0.8-1.6-1.6-2.5-2.4l0,0
		C21.1,18.8,19.7,17.6,18,16.8L18,16.8L18,16.8z M27,16.8c-1.6,0.9-2.9,2-4.2,3.1l0.4,0.4l1.1-1.1l0.3,0.3l-1.1,1.1L24,21
		C25.2,19.8,26.2,18.4,27,16.8C27,16.8,27,16.8,27,16.8z M20.8,19.2l3.8,3.9c0,0-0.2,0.2-0.3,0.3l-3.8-3.9
		C20.5,19.5,20.8,19.2,20.8,19.2z M19.4,21.4l-0.5,0.5l1.3,1.3c-0.5,0.8-1.2,1.4-2,2l0.5,0.5c0.5-0.8,1.2-1.5,2-2.1l1.3,1.3l0.5-0.5
		c-0.4-0.3-0.8-0.4-1.2-0.8c0.4-0.4,0.7-0.7,1-1l-0.4-0.4l-1.1,1.1c0,0-0.2-0.2-0.3-0.3l1.1-1.1l-0.4-0.4c-0.4,0.4-0.7,0.7-1.1,1.1
		C19.8,22.3,19.5,21.9,19.4,21.4L19.4,21.4L19.4,21.4z"/>
	<path class="st0" d="M19.3,31.5l-0.2,0.2l0,0l0.5,6.4L18,39.8l0.6,0.6l1.7-1.5l6.3,0.4l0,0l0,0l0,0l0,0l0.2-0.2c0,0,0,0,0-0.1
		c-0.4-0.4-0.4-1.2-0.7-2.1c-0.2-0.7-0.4-1.5-1-2.4l-0.7,1l0,0c0.5,0.7,0.9,1.3,1.2,1.8c0.3,0.6,0.5,1.2,0.8,1.6l-5.7-0.4l3.3-3
		l1.2-1.6l-0.8-0.8l-1.6,1.3L20,37.7l-0.4-5.8c0.4,0.4,1,0.5,1.6,0.8c0.5,0.3,1.2,0.6,1.8,1.2l1-0.7c-0.8-0.6-1.6-0.9-2.4-1
		c-0.9-0.2-1.6-0.3-2-0.7C19.5,31.5,19.5,31.5,19.3,31.5L19.3,31.5z M25.2,31.5c0,0-0.1,0-0.2,0c0,0-0.2,0-0.3,0c0,0-0.1,0-0.2,0
		c0,0,0,0,0,0.1v1.2c0.1,0,0.1,0,0.2,0l0.6,0.6l0,0h1.2c0,0.1,0.1,0,0.1,0s0-0.1,0-0.2c0,0,0-0.2,0-0.3c0,0,0-0.2,0-0.3
		c0,0,0-0.2-0.1-0.3l-1.2-1.3c0,0-0.2,0-0.3-0.1l0,0l0,0L25.2,31.5z M25.2,31.7L25.2,31.7L25.2,31.7l1.2,1.3l0,0c0,0,0,0.1,0,0.2
		v0.2l0,0h-1.1l-0.5-0.6v-1.1l0,0c0,0,0.1,0,0.2,0C25.1,31.6,25.2,31.6,25.2,31.7L25.2,31.7L25.2,31.7z M24.4,34.1L24,34.7l-3.8,3.9
		H20v-0.3l3.8-3.9L24.4,34.1L24.4,34.1L24.4,34.1z"/>
	<path class="st0" d="M24,46.1c-1,0.4-2,0.5-3,0V47c1,0.5,2,0.4,3,0V46.1z M19.8,46.3c-0.2,0-0.3,0-0.4,0c0,0.5,0.2,1.2,0.5,1.6
		c0.2-0.1,0.3-0.3,0.4-0.4c-0.2-0.4-0.3-0.9-0.3-1.3C20.1,46.2,20,46.2,19.8,46.3C19.9,46.2,19.8,46.2,19.8,46.3L19.8,46.3
		L19.8,46.3z M25.2,46.3c0,0-0.1,0-0.2,0c0,0-0.1,0-0.2,0c0,0.4-0.1,0.9-0.3,1.3c0.1,0.1,0.3,0.3,0.4,0.4c0.4-0.4,0.6-1.1,0.5-1.6
		C25.4,46.4,25.3,46.4,25.2,46.3L25.2,46.3L25.2,46.3z M19,46.3c-0.3,0-0.5,0.2-0.8,0.3c0,0.6,0.3,1.3,0.7,1.7l0,0
		c0.3,0,0.5-0.1,0.7-0.3C19.2,47.5,19,46.8,19,46.3L19,46.3z M26.1,46.3c0,0.6-0.2,1.3-0.6,1.8c0.2,0.1,0.4,0.2,0.7,0.3l0,0
		c0.4-0.4,0.7-1.1,0.7-1.7C26.7,46.5,26.4,46.4,26.1,46.3L26.1,46.3L26.1,46.3z M17.8,46.9c-0.3,0.4-0.4,0.8-0.4,1.3
		c0.4,0.1,0.8,0.1,1.1,0.1C18,48,17.8,47.5,17.8,46.9L17.8,46.9L17.8,46.9z M27.3,46.9c0,0.5-0.3,1.1-0.6,1.5c0.4,0,0.7,0,1.1-0.1
		C27.7,47.7,27.6,47.3,27.3,46.9L27.3,46.9L27.3,46.9z M24.4,47.3L24.4,47.3c-0.5,0.3-1.1,0.4-1.6,0.4v4.8c1.6-0.5,2.7-1.8,2.7-3.2
		s0-0.5-0.2-0.8c-0.4-0.2-0.7-0.4-1-0.7h-0.1c0-0.1,0-0.2,0-0.2s0-0.2,0-0.3l0,0H24.4z M20.7,47.3c0,0,0,0.2,0,0.3l0,0
		c0,0.1-0.1,0.2-0.1,0.2c-0.3,0.3-0.6,0.5-1.1,0.7c0,0.3-0.1,0.5-0.1,0.8c0,1.4,1.2,2.6,2.8,3.2v-4.8C21.7,47.7,21.1,47.6,20.7,47.3
		L20.7,47.3L20.7,47.3z M20.3,51.9C20.3,52,20.1,52,20,52.2c0.4,0.4,1.2,0.8,1.8,1c0.1-0.1,0.3-0.3,0.4-0.4L20.3,51.9L20.3,51.9z
		 M24.7,51.9l-1.8,0.9c0.2,0.1,0.3,0.3,0.4,0.4c0.6-0.2,1.2-0.5,1.8-1C25,52,24.8,51.9,24.7,51.9L24.7,51.9z M19.7,52.5
		c-0.2,0.2-0.3,0.4-0.4,0.5c0.5,0.4,1.2,0.8,1.9,1c0-0.2,0.2-0.4,0.3-0.5C20.8,53.3,20.3,52.9,19.7,52.5
		C19.7,52.5,19.7,52.5,19.7,52.5z M25.4,52.5c-0.4,0.4-1.1,0.8-1.8,1c0.1,0.2,0.2,0.4,0.3,0.5c0.7-0.2,1.3-0.5,1.9-1
		C25.7,52.9,25.5,52.7,25.4,52.5C25.4,52.5,25.4,52.5,25.4,52.5z M19.2,53.3c-0.1,0.2-0.3,0.4-0.4,0.6c0.6,0.6,1.3,0.9,2.1,1
		c0-0.2,0.1-0.4,0.2-0.6C20.4,54.1,19.7,53.7,19.2,53.3L19.2,53.3z M26,53.3c-0.5,0.4-1.2,0.8-2,1c0,0.2,0.2,0.4,0.2,0.6
		c0.8,0,1.5-0.4,2.1-1C26.3,53.8,26.1,53.5,26,53.3L26,53.3z"/>
	<path class="st0" d="M24.6,60.9c0,0-0.1,0-0.2,0l-0.3,0.6h-0.1l-0.2-0.2v0.2l-0.4,0.9l0,0l0,0c-0.4,0.7-1.1,1.1-1.7,1.4
		c-0.8,0.4-1.7,0.6-2.5,0.9c-0.4,0.2-0.7,0.4-0.8,0.8s-0.1,0.8,0,1.3c0.2,0.9,0.8,1.8,1.5,2.3c0.7,0.5,1.8,0.7,2.7,0.6
		c0.4,0,0.9-0.2,1.2-0.4c0.4-0.3,0.5-0.6,0.5-1.1c0-0.8-0.1-1.8,0-2.7c0-0.7,0.3-1.4,0.8-2.1l0,0l0.3-0.3v1.7
		c-0.3,0-0.4,0.4-0.4,0.6c0,0,0,0.2,0,0.3l0,0l0,0l0.4,2.2l1.2-0.4l-0.4-2.2c0-0.2-0.2-0.4-0.3-0.4h-0.2v-2H26l0.2-0.2L26,62.7h-0.1
		l0.4-0.5C26.3,61.5,25.4,60.9,24.6,60.9L24.6,60.9L24.6,60.9z M24,61.8l1.4,1l0,0l0,0l0,0L25,63.2c-0.5,0-0.9-0.4-1.2-0.8L24,61.8
		L24,61.8L24,61.8z M23.6,62.8c0.3,0.4,0.6,0.6,1.1,0.7c-0.4,0.6-0.6,1.3-0.7,2.1l0,0c-0.1,0-0.3-0.2-0.5-0.2
		c-0.5-0.2-1.2-0.3-2-0.3s-1.5,0.1-2,0.3c-0.2,0-0.4,0.2-0.5,0.2c0.1-0.3,0.3-0.4,0.6-0.6c0.8-0.3,1.7-0.5,2.5-0.9
		c0.6-0.4,1.2-0.7,1.7-1.4l0,0V62.8z M25.5,65.4c0.2,0,0.3,0.1,0.3,0.3c0,0.2-0.1,0.3-0.3,0.3s-0.3-0.1-0.3-0.3
		C25.2,65.5,25.3,65.4,25.5,65.4L25.5,65.4z M18.7,66.2L18.7,66.2c0.1,0,0.4,0.2,0.6,0.3c0.5,0.2,1.2,0.3,2,0.3c0.8,0,1.5-0.1,2-0.3
		c0.2,0,0.4-0.1,0.5-0.2c0,0.2,0,0.3,0,0.4c-0.1,0-0.3,0.1-0.4,0.2c-0.5,0.2-1.3,0.3-2.1,0.3c-0.8,0-1.6-0.1-2.1-0.3
		c-0.2,0-0.4-0.1-0.4-0.2c0-0.2,0-0.3,0-0.4l0,0H18.7z"/>
	<g>
		<line class="st1" x1="30.4" y1="34.2" x2="57.2" y2="34.2"/>
		<line class="st1" x1="30.4" y1="38.7" x2="43.8" y2="38.7"/>
	</g>
	<g>
		<line class="st1" x1="30.4" y1="63.6" x2="57.2" y2="63.6"/>
		<line class="st1" x1="30.4" y1="68" x2="43.8" y2="68"/>
	</g>
	<g>
		<line class="st1" x1="30.4" y1="48.8" x2="57.2" y2="48.8"/>
		<line class="st1" x1="30.4" y1="53.3" x2="43.8" y2="53.3"/>
	</g>
	<g>
		<line class="st2" x1="30.4" y1="19.5" x2="57.2" y2="19.5"/>
		<line class="st2" x1="30.4" y1="24" x2="43.8" y2="24"/>
	</g>
	<path class="st3" d="M46.4,6.5H44c0-2.9-1.4-3.1-5.3-3.1S34,3.6,33.9,6.5h-1.7c-2.7,0-4.9,2.2-4.9,4.9h23.3
		C50.6,8.7,49.1,6.5,46.4,6.5z M39,6c-0.4,0-0.9-0.5-0.9-0.9s0.4-0.9,0.9-0.9s0.9,0.5,0.9,0.9S39.5,6,39,6z"/>
	<g>
		<polygon class="st4" points="65.2,51.9 68,28.3 72.4,28.8 69.6,52.4 		"/>
		<path class="st4" d="M68,28.3l4.3,0.5l0.5-4c0.2-1.3-4.1-1.8-4.3-0.5L68,28.3z"/>
		<polygon class="st4" points="69.5,52.4 66.7,57.4 65.2,51.8 		"/>
	</g>
</g>
</svg>
