<svg xmlns="http://www.w3.org/2000/svg" height="20" viewBox="0 -960 960 960" width="20"><defs><style> .primary_icon { fill: none; stroke: #9fa8da; stroke-width: 1rem; }</style></defs><path class="primary_icon" d="m379.384-88-15.461-120.692q-10.154-5.769-29.203-15.608-19.048-9.84-30.105-19.084L190.923-196 91.307-375l92.231-71.539q.231-7.772-.923-17.846-1.154-10.074-1.154-17.846 0-6.484 1.154-15.692t.923-19.538L91.308-587l99.615-175.462 108.923 44.616q13.923-9.923 32.269-19.923 18.346-10 32.039-17.539L379.384-874h201.232l14.461 120.461q15 9.077 31.154 17.539 16.154 8.461 30.846 19.154l112-45.616L868.693-587l-96.308 73.846q1.308 8.385 1.692 17.731.385 9.346.385 15.423 0 5.308-.769 14.654-.77 9.346.461 20.038L866.923-375l-99.615 179-115.231-48.154q-13.692 9.693-28.115 18.423-14.423 8.731-27.885 15.27L580.616-88H379.384Zm94.539-263q54.446 0 92.723-38.277T604.923-482q0-54.446-38.277-92.723T473.923-613q-53.077 0-92.039 38.277-38.961 38.277-38.961 92.723t38.961 92.723Q420.846-351 473.923-351Zm-.118-70q-24.882 0-42.882-18.118-18-18.117-18-43 0-24.882 18.118-42.882 18.117-18 43-18 24.882 0 42.882 18.118 18 18.117 18 43 0 24.882-18.118 42.882-18.117 18-43 18ZM480-481Zm-41 323h80.08L532-265.308q29.231-8 55.336-23.046 26.106-15.047 52.356-40.184L735.462-287l41.769-66-84.539-65.769q5-17.077 7.116-32.153 2.115-15.077 2.115-30.808 0-14.501-1.615-27.078-1.616-12.577-5.616-33.884L779.769-609 740-675l-99.077 40.769q-19.154-20.923-50.624-39.141-31.469-18.218-58.068-24.32L521-804h-83.769l-9.462 104.538q-32.231 7.462-59.577 23.308-27.346 15.846-52.423 41.923L221-675l-41.769 66L261-543.231q-4 18.462-6 34.231-2 15.769-2 27.193 0 10.807 2 26.307 2 15.5 5.231 36.731l-81 65.769L221-287l95-40q27.538 24.769 54.385 39.615 26.846 14.847 56.615 22.847L439-158Z"/></svg>
