<svg xmlns="http://www.w3.org/2000/svg" height="20" viewBox="0 -960 960 960" width="20">
  <defs>
    <style>
      .primary_icon {
        fill: none;
        stroke: #9fa8da;
        stroke-width: 1rem;
        stroke-miterlimit: 10;
      }
    </style>
  </defs>
  <path class="primary_icon"
    d="M456.077-296.769h45.846l13.385-53.539q20.769-3.692 35-11.384 14.231-7.692 24.538-20.615l52.231 16 23.692-40.539-38.538-35.288q4.615-15.174 5.615-37.366t-4.615-36.885l37.538-34.769-23.692-40.539-51.231 15q-10.307-12.923-25.038-21.115Q536.077-606 515.308-610l-12.385-53.231h-46.846L444.692-610q-20.769 4-35.5 12.192-14.731 8.192-25.038 21.115l-51.231-16-23.692 41.539 38.538 34.769q-5.615 15.693-5.615 36.885t5.615 36.885l-38.538 35.769 23.692 41.539 52.231-17q10.307 11.923 24.538 20.115 14.231 8.192 35 12.192l11.385 53.231ZM479.788-406Q449-406 427.5-427.712q-21.5-21.713-21.5-52.5Q406-511 427.712-532.5q21.713-21.5 52.5-21.5Q511-554 532.5-532.288q21.5 21.713 21.5 52.5Q554-449 532.288-427.5q-21.713 21.5-52.5 21.5ZM240.615-158q-35.315 0-58.965-23.65Q158-205.3 158-240.615v-478.77q0-35.315 23.65-58.965Q205.3-802 240.615-802h478.77q35.315 0 58.965 23.65Q802-754.7 802-719.385v478.77q0 35.315-23.65 58.965Q754.7-158 719.385-158h-478.77Zm0-58h478.77q9.23 0 16.923-7.692Q744-231.385 744-240.615v-478.77q0-9.23-7.692-16.923Q728.615-744 719.385-744h-478.77q-9.23 0-16.923 7.692Q216-728.615 216-719.385v478.77q0 9.23 7.692 16.923Q231.385-216 240.615-216ZM216-744v528-528Z" />
</svg>
